<mxfile host="app.diagrams.net" agent="Mozilla/5.0 (Macintosh; Intel Mac OS X 10_15_7) AppleWebKit/605.1.15 (KHTML, like Gecko) Version/18.1 Safari/605.1.15" version="26.0.6">
  <diagram name="Page-1" id="IFF8ZtTHUCRz947lKQ_z">
    <mxGraphModel dx="1314" dy="863" grid="0" gridSize="10" guides="1" tooltips="1" connect="1" arrows="1" fold="1" page="0" pageScale="1" pageWidth="850" pageHeight="1100" math="0" shadow="0">
      <root>
        <mxCell id="0" />
        <mxCell id="1" parent="0" />
        <mxCell id="ZvbYAXG5r7vH_dmeVflF-23" value="" style="group" vertex="1" connectable="0" parent="1">
          <mxGeometry x="85" y="31" width="889" height="471" as="geometry" />
        </mxCell>
        <mxCell id="JChZYBgfWDOJtocZhu9c-11" value="" style="rounded=0;whiteSpace=wrap;html=1;" parent="ZvbYAXG5r7vH_dmeVflF-23" vertex="1">
          <mxGeometry width="779" height="471" as="geometry" />
        </mxCell>
        <mxCell id="JChZYBgfWDOJtocZhu9c-16" value="" style="edgeStyle=segmentEdgeStyle;endArrow=classic;html=1;curved=0;rounded=0;endSize=8;startSize=8;sourcePerimeterSpacing=0;targetPerimeterSpacing=0;fontSize=12;exitX=0;exitY=0.25;exitDx=0;exitDy=0;" parent="ZvbYAXG5r7vH_dmeVflF-23" edge="1">
          <mxGeometry width="140" relative="1" as="geometry">
            <mxPoint x="3" y="41" as="sourcePoint" />
            <mxPoint x="889" y="41" as="targetPoint" />
            <Array as="points">
              <mxPoint x="862" y="41" />
            </Array>
          </mxGeometry>
        </mxCell>
        <mxCell id="JChZYBgfWDOJtocZhu9c-21" value="" style="shape=stencil(lVbLbhsxDPyavRKiqOc5Tf8jQJx6UdcOHLdN/r7cbiWHqncA3/YxI4nkcKhJHt72T6+7ybu3y/n0ffd7fr7sJ/kyeT8f97vzfNGnSR4neXg5nXffzqefx+f1/fVpQS5PP06/lhXeV54jDgvJu4/1AztHzv399HUlHOajIfz72wg1k2SItxvURJkRfjhQjSQV4UOy+EA5bOOZ2N2HL3HEu7KNF/LD+T3ltI3vu3c8U4jb+ETRxlsqBZD/QrFafKYI6suaULaEQAVswJ6ijaAwRZAh1pDtkXIhD0rMmbytQQ4kqGaVqrcEJgeS6v2YpZRh1Xxsou8EoeIBoRDbGGKFaRVHVSwhtqhuE6T1VScwCSKk1liNEHArSyVntReEAtghMCUbg2Cxht5bnZCIgZZComDFJ54K0FIoo/iWRIMYNInOxqClrEBLUR3AxuBzS8NtQqRo1apNjgoXdT1bB5Uj8uxFatb01KYSSGtiqjat2iFIGqr+avtBjRPZfErjHFEnRz6fylgH7XJk3NmNauUC1Zo9eXskNR4GMVxdqBNiU9dtgqrVSkO9EPWDGmO20mAhBr5U3FgH1gEGslRUrdY1dABEoNYS/xu4bYXbeBWrzWqGDarjbPCMBKfJdVx224P9XKVNgiveg4zquBe5B6/5cffgU/vdTZUSyKfiq11foB3p9SwMHgyHreLLYC7QvWqf3V1ATYJb+FHS0OxqHS+ErrnfFj7mAY+88dN9d4ugD9fr88t8OKy378//x+u2flqv6vL4Bw==);fillColor=none;strokeColor=default;" parent="ZvbYAXG5r7vH_dmeVflF-23" vertex="1">
          <mxGeometry x="554.4444444444443" y="386.7619047619048" width="222.69841269841262" height="36.19047619047619" as="geometry" />
        </mxCell>
        <mxCell id="JChZYBgfWDOJtocZhu9c-24" value="" style="shape=stencil(lVZJcuMwDHyNrl0EwPWc5R+pijNWjWOnHGeW3w88KiaBJCPxjabRFBpoNDnIzev24WUzcHg9HQ8/N7/Hx9N2kNuBedxvN8fxpKtB7ga5eTocNz+Oh7f94/T75eEceV49H36dT/gz4QqjyBnF4e+0wwQp/3fuJ8Bu3LsAqhC+CpBRmgMgFLaAiBQcQEAhC2AwXQbkitwsIPSddUBCzgbQ0BzOmZFlFk/5cnyqSO2K85MWJFkChJguA2JDnDEWlOgABPGqrkmCzFJqqE5KnMG2piy9yqsA1RlVC6hgh4M2lYIBiPQ6r5cVwVKIAdHJiBGsUGOByOX4gGDz0T6yI+xFfCZU53xCsHOgQi/O+REhmviSIU5BK4JtQBV3znRuyX6gNogDUAZsGbToaoILuFhA6WawLtPYGX6M/nuZ14ukk0XXIQriLKnad745zi0hev5CyFZ5LaA6nVs6Xo3dltc9VafdciilT9O6NqQn8E3xqRTabBoaksNBpdBslRKBHIdRKTSr16h3kQP41Nh3x0ggT+FLxBemtExKbYQ8gKDNFOs7cS2o9gtfXIdFjdpyULl69+3igk6ubWT1dctAutGuj0NGstojJEerKSDZCZ3Ppy4+HkBP4243vZ8+/z9/MOnW9NiSu38=);fillColor=none;strokeColor=default;" parent="ZvbYAXG5r7vH_dmeVflF-23" vertex="1">
          <mxGeometry x="753.8095238095236" y="408.6666666666665" width="23.57142857142857" height="31.19047619047619" as="geometry" />
        </mxCell>
        <mxCell id="ZvbYAXG5r7vH_dmeVflF-22" value="" style="group" vertex="1" connectable="0" parent="ZvbYAXG5r7vH_dmeVflF-23">
          <mxGeometry x="16" y="44.857142857142776" width="757.0952380952381" height="422.85714285714283" as="geometry" />
        </mxCell>
        <mxCell id="JChZYBgfWDOJtocZhu9c-20" value="" style="shape=stencil(rVnLchw3DPyavaL4JnB2nP9QleVoK7LkkuXY/nv3ZjO7GoBuS1W5rUboIUECjQbmUN99ubv5fHso6cvz0+Pft9+OH57vDvWPQynHh7vbp+Mzfh3q+0N99/Hx6favp8evDx/Of3++OVmefn16/Of0hu9nXJmS6glV0o/zkyRD/33w59n+/vjwG/vWif2Q2p19NWLft+Wv9qVS+5ScfRrEvkkt3j79j/ZVhvc3Z2JfxKY/n0btq/d3FGKfxPb7yZLYfnDc09l3Eg9Zxfbngw2S9+cpff/+KoXZDyn797ftwdq+iY6dfZdCzjNX6XlnP/j+i+T9+6c0Ep85S7OdvUon8ZmT6H4/JpPtP9ifnsw3AbIoO9EIKDLetkKVRnIGgNz2gCaJBJ1JG95eyaGqzD2n5C6TXLJuKXuxH9TjSwhc7Ce9tCHT7V+3I/uFfXL7NzESdE3mfj+npCfng9PecwSSOBF/q9T9fvAkMZKWmbw923+0h0eM5IJ9p0lWfA3DCTeWlL6G4cYrsU++hiGiGEkkX8MQ4YzUg31FypEEC/upWYyRuve3Vl7E/PnXRuMnxBvsjbw/xHNF/hLREfKlDulvycc6qUgJ+V5VCrEPfFJNMrV3fNVw48Q+8GHL2wm/knBboaomVjEA2I3FMtkqpehYh1ujHB0LfUPSM6ejkhjbmq+UKg0XzwBBCzWVSvIgiq1mm9xcA/LGCxd18xt5HORlzzQ1o94FgF1cFOy9SGcKP3QQnUtApIMrNwAoW8E8X/RG6wHo0BFG56oRAMcYABirmMVTRoekYCtEwKShcaXoFwBjK1TPMh3SlJAASNrRTDfaS4ClHc0A0JkP3SvHAeJjgOF5CQAWfCB2x0sjS2FOT9HmAUpq5wIAucxOKQK4XF4A0BMR5lsAOq0nS4C9DTC2J68FTCp5FgDdOuHXA4ytoKETNKoarkX80gomSmSo4r15gJGLQxlXt0LeqG0NqBttXQCFtu8ost2tUGnJQpF184TZuNPTDyxmp1oDNdNNUGanI6ke5PC8DJ3WgKBvAWDs3YPAndAG5B566JAmNCBxugeJC8AgJQv1pu2jdSIcmQ9BFAPAmtoeVK4mWhR7kLkAsDa4B92qmQ5fRhymZNpIgnodCSjImNzDCKpScZVsheFTVHnvAxZyKQoAO6UZRKJ2ynwziETtdLwwg0hUaGUSfDOIRABYtM4wpdVJO5QZVCUAjZ3SCsAq0AyDaeVN3Ay6FQB6cUG3Km/7ZtCtADCRiPxyJGC8UdQgdC3RGqdB6ALAlIAG3WqZXpwG3WqZqnsNutUKHZkvAeziFluqVIYunK6UKhfHWmlrubi4Sgv7EsBIYAFodKi38KFR1licUuPBF++hUe2toUOxvpHnGhA6FAAYkWnoUGxQNaOhQwGgMB9WADamWAKYSNTQAwFgzOkgpQ2vYD4EKW18cqJBSgNAmW8FoJ8AzBd2Uz5TC2IdACZOQFuleAALbwvqHoBJfABtuYEUAIyMLbQDZlSsA+AmWAAw9rbQPwDAEuiakC8ASqLVQv8AAJtr5BT6gReP/oPgx/WL+Mfj/f35g/rL//sv6Hh0/vpe3/8E);fillColor=none;strokeColor=default;" parent="ZvbYAXG5r7vH_dmeVflF-22" vertex="1">
          <mxGeometry x="511.1428571428571" width="35.238095238095234" height="422.85714285714283" as="geometry" />
        </mxCell>
        <mxCell id="JChZYBgfWDOJtocZhu9c-22" value="" style="shape=stencil(tVrLchs3EPwaXqfwxuDsOP/hKsuRKorkkuU8/j6zxWBJNKgG95CbTE+Tu8BMd88Ap/jpx+OX7w+n4H68v73+/vDX09f3x1P85RTC08vjw9vTu/11ip9P8dO317eH395ef758Pf/7+5ctcvvrj9c/t2/4+4xrKq1tqOD+OX/ik4TzJ7+eAc9PL9eAJul/B5QwAqLosV+I/ZOPAB5+IUh1BKCiZQR4yZ4Cko4AJ5UDvB8ATXIg8VWKG+JVYiTxRTQN8VV8IvFZ2vjGWXIh8UlaHuKjtEribUvH97UdUBIfpMCCSmZbbP89vq+tP4t3EhTiE8kIbX35LvGOxas4fyS+SD30/VnKoe9PEg99fxCNR+K9xCPPU62Gw5H42rfnzvgs8cj+1igB35flT/USxvf14kl8aRKBgmg+lyo5H4kv4tKR+CS1HomPnf8u8Y3UbwmSx/0KfUNux3vkdM4PxSHh2gMS/skN+ZPzVda+HD3eCojFW36O+5XFE/7MpafLfXybk6iD+P8I+HZ87D/f44tEFu+7/FziK4lPTXTMH64vSbG+aifs2/E39KuxeFu+MR+4PqYkKUF8ZfHmMMbnN0Fg8QH5rUkj+p4s/6G+XGeM2wCHhGgWxRPHEY2BwDVZSRJKjIoUajbLM0DtJXKn84uWk2Czci/r24CMWeSLBFKWMYmDl7ZCJXUWA/oab5lLCiF6KQ0BhQFcL/Qd0Hou3gSESSoNoAyg6G1MzAID1L6IO8CLI9lt5BAKAhID5L6IOyBIIOl9odsdEMUxQERDFHbLeRtgDgceKXWN+AgQxn2wt2Ie5CKpVwBmKmybwHSFQl3Ftq8OAUzGL6m2AyrVZUtmyFYDMGG2+gKhsnRkymwV3GBZm1RSon6yOpeSug3IWA9WtEzcjLZADI0WmFoZMdZxlWKk8rMx6bjTMdH+b+PqsR6MC5k+mBpAV21sy1pY0xvoeTc+Z01yN1B7vFJ5aEjFFs/afEWHbQpWSOZVdNgmkUoSr/S03OODOGbBpI1bZp6AEb0ZwDHrzHMw2k7o+M0DMRJOWAapUkqN2CGbJ0vMMGDVZN5yxf60ezxviXaDv8fzFiH01d7jueUPaJDMQzNeCeLh+7nF9thBZW6BPfqvzC2nxwlC4Y7QSRnXv3B/59DeFe7WHFJWybS+9mzZ47n1muONMcj6T89T9xW4730rtyAOOb1yQ+HRE9VMRw5T/lSu3VN+Vq7EJlmwPkpbXnO+4/pXrsMTP6ij9RK799njuQrv2bjHcxGeOmTlGpx7dVzFs3rMOMHURFvAMnWYPL6il1NuCVScYjxrMSf91YWDcF3Od0ChHealAb0CUMsRcC6v3HLMtkm55zAnB2Nb5abDvCJUmXLXYW4UBi3N0R7WDLIf67552sOaBQcjYYDCAA1nSy1Q5p3bCAMoA3icJrdIu+RNjOGlEyX3uZ1riXfJCQdSjdstq0/Q15apfsxdcuMGzSq0FAQoAVgf48bk2459mKXz6GGb0i7Z2hIgjbYwgQnnpitA7nPhewHT1GgFUBTmBcD6AHCm2/keA0zDuNZ6M/LRtA+0pzU6S7BWAErUO+6uU+7niXcjKs4rlgjFQ6jFa+TJUy0Wyiy+C0e2wjw+1hDP8DzJ+qKGstUkPBKv0rxPlu/kgdxw0mRMw+ZxxeNcdEF+5vQr/ALvTTerD0XHGd+8PnRrjXfLpU77sGjHtQ/471Res/s48udmoE4DvIU/McMPlyUWlqxm7MEWntUsPNSD8llWnWa79okny2om3k9tBmvLdRKhmmhNGwCM8aKx0km1Fp2bLSIcrhU+Y784/x1QqGWaj8etQljybd4ZHolfKdHprKPw8xqddDHzKyI6nddkfmZm9QUkkPkhYZuENPNTTgMAe+fFNRGPbjov7ol47CozP5hu08FcXtwUiZ3n9rkZF8WNeuHomGtcm8xA4pK1OdvxHVKhxy+mN1BAiSvQpmjwSNyvG6DCI3FBaZM7SbyrMUCF+StvtOYrVouBswHisQn4dOsr5tWtL+hqIp8JtMmRLU4i5vt9kU9lNsMGJ0J8TDTfvrNOilZcQ3OyOGhr090C6zeZI7vytbvV5WeqtxBcIeaHWt9SxGuNnPDnW4r8isScffyKylxASHz2x+Xe6Len5+fztdPr/8d7pvbR+Y5q/Pwv);fillColor=none;strokeColor=default;" parent="ZvbYAXG5r7vH_dmeVflF-22" vertex="1">
          <mxGeometry x="555.9047619047619" y="356.19047619047626" width="188.57142857142856" height="60" as="geometry" />
        </mxCell>
        <mxCell id="JChZYBgfWDOJtocZhu9c-23" value="" style="shape=stencil(lVfLctswDPwaXXdIgODjnKb/kZk4taeunXHcNvn70tVIDQ0XNG8SxRUJ7AJLTvzwtn163Uzk3s6n4/fN793zeTvxl4lod9huTrtzfZr4ceKHl+Np8+10/Hl4nt9fny4zL08/jr8uf3ifccGB6YIi9zGPlIwQ/o58nQH73cEEeOfg3AiiJFAaAjCSjAByRKIRQMqQMUAd8SOA6FCG8iqExCOAIEhDPHBBHtoSJ8jYCsMAe0uckXwbNIOjARCEPJIldojSAjKcIT4K8KUFFJChJZ+QQst0TUMxAB7UrtCTxpLDdT6jGGL1iG1SReDy/+ev9X7nfP1/ez8RoaVAPMQgWSeow5mmIASIkVFNck+oSkZVid4SaoJvk0oFbNUOQ9oViM3OLYo2XxNt0CCKh7ojg+aoaGCzqcawfF7m20YSIzyPzFcse3jDd2IN76r0EY26TARpe0sGGftJgtzWQRWuZVOpwLUBdxjLBIqtJjycEUJW7fESs7WCasA1aG9UTvGL7a2icAgGC2WtkxVAS95uA/LSPe8stU8HlhURwVYQegnb2G4EYQN0XqvVRSNNmupOR9LqC1UbVnnqcqClC95Zzx1zloJ4Zc52G5ba1tugO25+A2A7gwZ0zFnH0DG3G4B69hxaITLI6MM3AAnF0JIG1NYWh4hLCWx5jwJU/bohpnMwzUfUoaf2NrGYVk2gA9CG29mStnQFqA//bmYvu/1+vth9/n59k6tD8y2QH/8A);fillColor=none;strokeColor=default;" parent="ZvbYAXG5r7vH_dmeVflF-22" vertex="1">
          <mxGeometry x="742.3333333333333" y="372.3809523809524" width="14.761904761904761" height="20.317460317460245" as="geometry" />
        </mxCell>
        <mxCell id="JChZYBgfWDOJtocZhu9c-25" value="" style="shape=stencil(lVbLchpBDPyavXbNSPM8O85/uMo4UCHgwjiJ/94iW4ujwWnCbVlaK2nU3aNJ717WD8+rScLL8bD/vvq1eTyuJ/0yiWx269Vhc7SnSe8nvXvaH1bfDvvX3eP8+/nhhDw9/dj/PH3h9xzXK2I8RUl4m99IRk9/3nydA7abHQ8QxHpTQIC0WwJiQY4koKCrDxBU1oN9r/iAAGUlZRQf0BCE4BPEt1BQAsELRBz+nPBTfOvLgXzgYyf4gpRuwStCuAFfO2TEs/prQivD+UT9N7509ObwFYHMq6SxnoZO6skV2eNjhJIBZ6Nw9QEJhQQkgQ6kbmhENpqQ/chEkUnPdiRDBmu6kgwmw+abtpyJTCFmqG86BQRCC1NVGQIyaiZzQ+meRhGNJNDlzM94rsuIlD3t+NQC4kC7CCEnFEbZ1ELrD6i+/iaU14Lsjc6ETWmK4ilhxsH67ahelmZMiczLGBF8AnO+RqzaOh6EbF5ciTMaq5OnRG9UBsbh4UxjOI/lf6V5JeJS/VZUJG0bLcUPritVf8loAzMqhDmqoA1UNU8mo7u07Mqv5WZS8T0UMxCSwbgWvdquqNnIVge7UCR2bWYk37RNv7NNwdjkMwgXqM21DqtFh7LVoiMNq8WVXaSPk7a7iEkuXJiMUpu/TGAuyDygLzRY8FwMdkSDBwS+QJZl1TrPAI146me7lN8V7OFjvX3abLfzdvz3/+M6bK/mVVrv3wE=);fillColor=none;strokeColor=default;" parent="ZvbYAXG5r7vH_dmeVflF-22" vertex="1">
          <mxGeometry x="620.4285714285713" y="12.619047619047706" width="131.66666666666666" height="50.476190476190474" as="geometry" />
        </mxCell>
        <mxCell id="JChZYBgfWDOJtocZhu9c-26" value="" style="shape=stencil(lVbLctswDPwaXTEkSILkOY//yEycWlPHzjhO2v594WqkGrC6dW6UhBWJxWLBId29b5/eNgOH99Px8H3zY3w+bYd0PzCP++3mOJ50NaSHId29HI6bb8fDx/55en57OkeeV6+Hz/Mffk64FqnLGcXh1/QmCUn/8+ZxAuzG/SUgUQoWwJQwoFcLiBQKABRKFsCNOAGAUHEAIY4AUKk2C8gkAQAaFQdg6g0C/A5xzurGHWKnKjAHD9BfYFqrZSkqDRkA2BcuCnUAqJ2ieEABhauZUvGACADSKOav7CCBKnuWImCpaD9YeXOYaVgFZJ7b5UYtpUzhS/JWMYtlSRuogRz0xM2ypHsKUGss1JIF1JmGdUAksbTmCAvXKLj4pfTrrFKLNr5Bk9Ei2PjClBkkQMFWuQikNPh4YYqAoOt4LDutmI2vWERX+aqPZyRrz6f6TQIOGYMvWE/QXVRC2UqoLwa1ngETu1YOC2vrjaOfrb30jjutU2j+TBGcSUXmmr/rbAOOVxRgaVKXDWAHlUG1WVeZS7lukXWeAouS/uPaV9NTD9mAgXUdTJalguvQdZBYx9PmR3Oht7lMi70keKQLJdw40VUJroF0fCKDUSV4AEPLU/27rCsJms9tltqSNAlySC2DG54w46rXKjsVcNVUNim5+Izi1eCstHm2hH+1gpu0mTJqHaEaIZ+6+HtrfRl3u+nSe/nd33L11XRDTg+/AQ==);fillColor=none;strokeColor=default;" parent="ZvbYAXG5r7vH_dmeVflF-22" vertex="1">
          <mxGeometry x="519.4761904761904" y="63.09523809523819" width="118.80952380952381" height="59.047619047619044" as="geometry" />
        </mxCell>
        <mxCell id="JChZYBgfWDOJtocZhu9c-27" value="" style="shape=stencil(lVbLbttADPwaXQdL7vucpv8RIE4t1LUDx+nj70tXVWrSMl0BPsgrjpY7HA53iA9v26fXzcDh7XQ8fN38GJ9P2yF+GpjH/XZzHE/yNMTHIT68HI6bL8fD+/55+v/6dI48P307fD9/4eeE6wSBnH/h17SSEnr6s/J5AuzG/SWAkbMCxI4aXEAjDWhgDxCRDCCBqwsoBkBIZQ2AG0J3AWwACZXdQ9sdCDE7AELRdaCK5O0QEAxAeGu3Aa3ZSve5ksvxGS2q+ALyvs82PiI6VasdKekDoDg1qBmshReQnSLXAC4mPjiyKwmprojPFaWtiQ+gsCL/xIi8gh9pkrqGf66omn+/vrJ91XxSQHE2oIKsCZWV5iiOCF0zylJzJ6Vq44WDvxpcphS1r/E6nn1qjs957tLFeOFDx5c81+RGfNDxovHm5BNsPs03RrL5iMsE8vghzU8vCF4Lo2r+e0Nz6kWMahQR/Kahhl7WbCGK6XnNGUQyFC1J2QGkCNLWLk4ZncbM0simzA3F6YNC1lnEy6pnjSI8zVJhdEeo5wR0799RthyxaJZSQ3SkJCQmc6/gmehlQL4a4uIf3gBsSJrWO1P/Qmsf/lKRnZyWEHHuqVtJmZZjv3TXx6Y+z4n/JJY+bHC5dMXO5XsAsb20BiBqsoCG7PiY2FzI9tDFm+WMoAV+dZ2Sh3933Jdxt5uuyJfv7Z1Ylqb7dHz8DQ==);fillColor=none;strokeColor=default;" parent="ZvbYAXG5r7vH_dmeVflF-22" vertex="1">
          <mxGeometry x="630.9047619047619" y="102.85714285714289" width="119.28571428571428" height="42.38095238095238" as="geometry" />
        </mxCell>
        <mxCell id="JChZYBgfWDOJtocZhu9c-28" value="" style="shape=stencil(lVZdb9swDPw1fiUkUV987rr/UaBpYzRNijTd1n9fep5cU3UOHZAHx+ZJ4t2R1MA3r/u7l90Q3OvlfHra/R7vL/uBfwwhjMf97jxe9Gng24FvHk7n3eP59Ha8n/+/3E2R09Pz6de0wp8ZVxMpZPq59/lNiOT93zc/Z8BhPK4BpQf4SjUCQCXnLaBQEQAQSh0gkQvXAeIoVQtgiuBI4r/kECgnCOhz8BQzzEGiBTjKBdL6j5MVIFQAiFSdAQhVFO+ocBcfgQolfV3foXjXNGrxlYq7Hp+ZfPmP+JQaf9/LNxZKnQKeKpCMdf/c2y4C2+kBOkBw5MEOQW1nKQ0Zcqo2DtbYHKiC4sxUk43XWmJwIkqW05gpgDpQS9oySIEEZKyesAknoQxE81Ts+jk3F26LTGI9XZgE8CNN0MVzWtiAHx+pWAGmOgUEacZiy1gYZhwKZXskqbDZseZsOfVuoXmbJG6aLltI03G71EIjZQHolAAy56UZLjTVVn3bzcI33y/CaXcBvOrnap2atVxxP+1mQqrkAUuqU9eAtYNU4A1R5WyDmToImjrS76B+zACwEnbVYQTNqUqhmyJMDp1JJ2vHKzFw38ZcI0FTh/upg71aSm8MB+8KOnWi9XYkBgTl2IbGN8dsWhro1duLPnzerh7Gw2G+nK2/97cxfTXf5Pj2Aw==);fillColor=none;strokeColor=default;" parent="ZvbYAXG5r7vH_dmeVflF-22" vertex="1">
          <mxGeometry x="548.7619047619046" y="157.8571428571429" width="111.19047619047619" height="60.238095238095234" as="geometry" />
        </mxCell>
        <mxCell id="JChZYBgfWDOJtocZhu9c-29" value="" style="shape=stencil(lVbLcsIwDPyaXHdsyw/5TOl/MEMomVLCAH39fZ2mpCgBATfH0cbW7kpKRbPDerGrK2cOx337Wn82y+O6oqfKuWa7rvfNsawqmlc0W7X7+mXfvm+X/fNu0UV2q7f2o/vCV4/LjMwdypnvfscnhPS789wDNs32HJARowQQnFcBKUiAheHrAGsMjBEIiuge7z+CDNgqgEnWzoOjAkjwMmvLICWJ7JGdBDh4UgAWUQISjBLPCSzjdRmYECSpugqJESVFgyqX4x3YP/D9GOD5gfuHCAoP8OPDie47BSBCmkicFdc5h5CliQJyUIztkCVF5cyg2DTCyAO8g1VcapEkpcGeSLsYP6mzOJjwSvzfbQcJLDgrDCHJ+/MNT4ClxFxMqBFqkaXGpeyMBmC4JAHpZNvLGYRTlQ+mMHodUBE5P4Qo7ZAmlyIFECa6ZV3nwGCZBetGimmitN5Q04SnoPfH4oTx3CkFq5zAxRyjoVCY1gaVgZUAp7t72oFvt2wrARFeKQfOY3+PVSiL/0G9ajabfs6fvx8P9rLV/xTQ/Ac=);fillColor=none;strokeColor=default;" parent="ZvbYAXG5r7vH_dmeVflF-22" vertex="1">
          <mxGeometry x="654.4761904761904" y="185.71428571428578" width="93.80952380952381" height="44.047619047619044" as="geometry" />
        </mxCell>
        <mxCell id="JChZYBgfWDOJtocZhu9c-30" value="" style="shape=stencil(lZbbbsIwDIafprdWYud4zdh7IAGjGqOosNPbz12Vrk7BGnchzUec37+dNLS6HDbnXYPmcu27191nu70eGnpqENvTYde3Vx41tG5ote/63UvfvZ+24+/zZlg5jN66j+EfvkbOGgPGDBia73HKWTD0O/M8Esf2NCNyAnICIAMxKkAEbwWAEUJWgAAmSMCCdwrgIMgdbITsFQDL5wnwkI0CGEhRAq7M3ARShBhqgIIC0OIMOhATOHwIsBBTfWhK94FAJU0zWZ2SBz8FMEuc5iVHkGVIGCAoshKBk27lGVJ2QCoRT/ZGMIo1WEQvZfWsm+JWlkQ6I+hmRYjyBJwXVLJgAKUvYganxLOo56RLaiHInHFxJFRyVop9Wq+bItftYtZybgfkwfqHCNbUSY24hWTlDNyxcgXoPcyZWqWk28gvZI36DoFVl4DnAtfKmWrAhSLcPzsM6Q0jc/FW1cmNVpF12bhtKJm5d5d4meoMqN891XoHVmvbi4BMuYvunRhztV4zXuJLQMZDRbLbOYtg0wPnZc9YfERQbtlGVuciZTz4ewzs2+NxfEvMv9ePB54aHx60/gE=);fillColor=none;strokeColor=default;" parent="ZvbYAXG5r7vH_dmeVflF-22" vertex="1">
          <mxGeometry x="536.3809523809523" y="244.76190476190482" width="114.76190476190476" height="46.42857142857142" as="geometry" />
        </mxCell>
        <mxCell id="JChZYBgfWDOJtocZhu9c-31" value="" style="shape=stencil(lZTZbsJADEW/Jq9XHnvWZ9r+BxKhRKUEBbr9fSeNKDgllvo2DPdMfL01sjrt1se2YTqdh/6l/eg2510jDw1zd9i1Q3eup0YeG1lt+6F9Hvq3w2b6fVyPyvH02r+PL3xOnCMC0YgxfU1XIgjh5+ZpIvbd4YYoGS4ogCOCN4AEFg14iAUEcFGAK0gWIKCkgYBUDIAg2rRjBFoGckTJCshmkjIja88e0S3rU00q64BQkqFnkNb/lvGuPvpLia76GJf1IcDTP+L3gjSrgEM2SiZuXoHqOBlfqC0guimEwVZTwGnHnuGMD/DcQagh8rL+z9xEQhBLz7qDEl0c3c8Qon4/1xeMkhV43RE5Ixvxu4SkW7TOnRUQV0BHVIo5x5KRtOWbbXO/7Whuom4bMpIa3bxqxYOyMTgV0Nsr18QZk5YrMMurR1ZAPVzX67bb76ftfPv/fB3Xq2mVy+M3);fillColor=none;strokeColor=default;" parent="ZvbYAXG5r7vH_dmeVflF-22" vertex="1">
          <mxGeometry x="659.4761904761904" y="269.7619047619048" width="85.95238095238095" height="36.19047619047619" as="geometry" />
        </mxCell>
        <mxCell id="JChZYBgfWDOJtocZhu9c-33" value="" style="rounded=1;whiteSpace=wrap;html=1;arcSize=31;direction=south;" parent="ZvbYAXG5r7vH_dmeVflF-22" vertex="1">
          <mxGeometry y="37.85285714285722" width="20" height="186.29" as="geometry" />
        </mxCell>
        <mxCell id="JChZYBgfWDOJtocZhu9c-35" value="" style="shape=stencil(fZXdbsMgDIWfJrcW2BjDdde9R6Wma7SsqdLu7+1HhLY1WPEdMeeEn+8AHe1u58O179Dd7vP02n8Ox/u5o6cOcbic+3m4l1ZH+452p2nuX+bp/XKs39fDolxab9PH8oev6kNgt5jQfdeCA1cLz1U+DpcH+V/vr9xDMuURV/IAjrflajIRJG7LIyCvJ+Mg+W2917MnYMtAIM0IZUw0DNKuwCfIhqHsX7OGUomWgds1lD0ly5DaNaCAo20DKQrkwSXDoDgQgw/bhqA4UAafDYPiUCpojcAqeAJkBDVkIFkZ2D4IrMCxnW1W4DiBN8LHClxE8NZx0MfHTmtU4MQByrZBFDhByJZBgZNCxsiSKHCSQYy0igKXEIJhSApcihCM8CUFLtlpTQpcLrekYcgKXA7AlkGBy3a8vdNXn2sDXhr/r8RpGMf6yDz2t69KKdUXifY/);fillColor=none;strokeColor=default;" parent="ZvbYAXG5r7vH_dmeVflF-22" vertex="1">
          <mxGeometry x="13.759689922480675" y="49.398671096345595" width="3.100775193798432" height="4.302325581395349" as="geometry" />
        </mxCell>
        <mxCell id="JChZYBgfWDOJtocZhu9c-36" value="" style="shape=stencil(rVbLbhsxDPyavRKSSInSOU3/I0CcelHXDhynj78vFxttTcWZXHpbyzOiOKSGmvjuZf/wvJtSeLmcT993v+bHy37iL1NK83G/O88X+5r4fuK7p9N59+18ej0+rr+fHxbk8vXj9HPZ4ffKa5WkLKwU/qwrkfK68HXFH+bjFT6GQCE4QqCcPia0RiUO+LcN/g/+XQKf4AtpGvBaAV6oVYdPxALwiYo/D1NkgA/E2eGFSvsYXysFdvhCKQN8JvV6KtUI8Ezi69uIgT41UvD6xEANCKSVdOg4pgQiaCHxCkWhiiJIV3wjKEWgqcYuyUZolEHRiv3tRbJrU0EOxQ4wdFGGbVosRa9SqrCPSqLsVeJAooAQxqQ5wc7IjYJ6QqYIvCJrvykbYbt8twllVIktJoogJD6CRBKUQyL1hZNEDaiUzQ6HCJkYRJA2yioFtobUUVZbEdDeth/79s7Y8kQoN0/AJm+aDM2XsYmZ6tGbasYuxpupbATtvnaboKNKufasbhOE1N+Hgn2JmYIvXMG+xJGSP1LBvmROOvRSwb60WLXv1oJ9yUxFvKxmbQFFsLr6HJRh89m0rF5WzXB+xtpPvBEUDtBYxqS1wV6KuXtEJ9hMQiPR5k3zESp2vmiu4QtXBQ7FaPfL18HGMGo+m5niL1DVPmJuj90uyYbHTqljFdonRknq92/YJ+26D/tjm+Q+mzY8dsk4VqBhk3z3Sr16uL4R7OPfq/hpPhzWR/X1/+Mr2pbWFzjf/wU=);fillColor=none;strokeColor=default;" parent="ZvbYAXG5r7vH_dmeVflF-22" vertex="1">
          <mxGeometry x="3.953488372093034" y="49.98006644518284" width="10.038759689922498" height="7.441860465116279" as="geometry" />
        </mxCell>
        <mxCell id="JChZYBgfWDOJtocZhu9c-37" value="" style="shape=stencil(lVjZThtBEPwav7bmPp4J+Q8kTLBCMDLO9fcpy5qJu3dTS97M0rXTZ3XN7uLd+/PD234X3Pv5dPy6/3l4PD/v4qddCIfX5/3pcMavXbzfxbun42n/5XT8/vp4/fvt4WJ5+fXt+OPyhl9XnHdOnLvAgvt9fTQffL4CXg6vN4DeJHplH6RkYl8lVWUfxwvW7bPUpuyzROZPEteVfZXQiH2QpP3vEiqxd1KDsvdeevg3oHVxUQOSZHJCqxKTBiAEdkIeGZ+ALo2dEKXrGqBomZ0QRg4nIItnJzjJugooQyNlrk26bjvUoZE61ypFZyl6qZ0AikTTeFEqiaEiRN0ZEU+YS1GacalIImmtQbwuXKxSyfBUJ6loALqLxFCanZ6EV5AYSrXjk4JEMj8lj/dNANJKKl2SeJ2llMeErAPCaOYJgJMkrcVLMS61MVLrAMy0Tmt2EolLuUvSWco4sxBAsyOag3SS1jzHZQIS5b1cpJsYQAsshiJeE9nlFaT54EAzMTRKrTlaEkDeCosBraZdQmU6i8GL0y6hWQKLwUnQaS1wksSQumUN9G8nMaDVsomhSCAxoJmLHlHMYCYxpGJpBlPO6B7z1c1KRBpYDNnyUvV0P6TZmxMQRrOsA6I4HUNNdKGAhbyJAf1LJi7NzpkAKA9WaegcXYfah1RZBYB6g44BW49toNgsVWKvepLWOBthAtLYSesAtJrOErRBIs2HjeZ0t0J9sJWFnRl1WqFv2ELBVjbM171EkiXsfUNkF0lH2Du0IdgmoNCFAiliJC5ErCNphdiputK904USkhW5N7p6HREHWX8YAbIs/+WUt8y0FbazzITEFlI6yE6rpfNwch3QhhKegEjVBpSwIRrod0eIxhermCDgmWLy2Jo6htYGMawDwH1mSMvQUOsAbBxDA1ESKZwPC6LxI6p1gLP6foPKulRD35wr2/B32ucR07puHdw+7ZEDphEtyWzsHyw4s9W7ZJJRsJ5uiq2VO+5f0x7xkgLMJv6gysDtS8cLCZtZC40xvNFJgTWEZcgN5ebGDriRhoH4s/hmsCFWl+/n8nnhP2RZIf0chpC9uTEUtvvtXRIai/HWot82rjCL/t+4Iy3ma+MStpjf5EeHr+dzruCbe2RVA4Mff78RPR1eXq6fmG7/b78p4dH1e1S8/wM=);fillColor=none;strokeColor=default;" parent="ZvbYAXG5r7vH_dmeVflF-22" vertex="1">
          <mxGeometry x="2.3837209302325846" y="54.04983388704329" width="13.779069767441861" height="8.779069767441861" as="geometry" />
        </mxCell>
        <mxCell id="JChZYBgfWDOJtocZhu9c-38" value="" style="shape=stencil(fZPLcoMwDEW/xts7tuTnOk3/IzMhhSmFDKGvv6+pp2lswDshzkVXQhJ8uLWnayNI3uZpfG0+u/PcCn4SRN3QNlM3x0jwUfDhMk7NyzS+D+f0fD0t5BK9jR/LF76STkLKRUTyOyUMtP9NPCe874YHnOFy/K7fxA2MzXAFdvu4B3OGMzTt44rhQ8Y7GK7wFtbldu79bAqIQJQLArytjEeWDceeZG2eFkrlLcchVCpoDa0zgfawlaYNwflMYCVCpYJVpSWnQJUKNpSWvIJR+wLnSks+wFUqeC4XI5i/X78t8OVmKFnf1LCaa3AIprJMcnU6K1Mx+L+7S9f36Wwf35d3GlPpxvn4Aw==);fillColor=none;strokeColor=default;" parent="ZvbYAXG5r7vH_dmeVflF-22" vertex="1">
          <mxGeometry x="4.767441860465112" y="57.15060908084172" width="2.0930232558139537" height="2.829457364341103" as="geometry" />
        </mxCell>
        <mxCell id="JChZYBgfWDOJtocZhu9c-39" value="" style="shape=stencil(lZBdDsIgEIRPs69k3bX0ALXeo0mpEBEain+3F4JG1Gji2+zsfEsY4G7Rw6yAcInB79XZjFEDb4DIOK2CiUkB98Dd5IPaBX90Y5nnISezOvhTvnApHArEDBFei0HNw9mWvDWuyhOJvKsA/JlnFsz/PCClkO0LsGbRNt+BFX78obLuSBLPBiZjbSmw3r83lqzSNvc3);fillColor=none;strokeColor=default;" parent="ZvbYAXG5r7vH_dmeVflF-22" vertex="1">
          <mxGeometry x="6.627906976744214" y="55.83277962347739" width="0.3488372093023256" height="0.31007751937982736" as="geometry" />
        </mxCell>
        <mxCell id="JChZYBgfWDOJtocZhu9c-40" value="" style="shape=stencil(lZPbDoMgDIafhlsCFAGvnXsPE3WSOTXqTm8/CVs8VEl2V8r/Nf0LJZAMVdYVRLBh7Ntr8bT5WBE4ESFsUxW9HaeIQEogKdu+uPTtvcn9ucuc0kW39uEqvDzHKGMOEuy9SZy9vLbNQs6BAqz0QHVIr6jSK735FdjVC6SfK+wCgAARBR1I7ACCLUUIkDzYkkJAFB6qRo+gOOX8GDAYiKmUAQBNSWuqzTEQIw8mPCXOUE/GUBP/RcQy6GKHWKS+yBTMf720de1XZXm/3Y0p5fcK0g8=);fillColor=none;strokeColor=default;" parent="ZvbYAXG5r7vH_dmeVflF-22" vertex="1">
          <mxGeometry x="8.023255813953483" y="54.51495016611307" width="1.744186046511628" height="2.0930232558139537" as="geometry" />
        </mxCell>
        <mxCell id="JChZYBgfWDOJtocZhu9c-41" value="" style="shape=stencil(fZHbDoMgEES/htcNLnLps7X/YSJWUioG6e3vC6FJrYa+DcscBgbCmmXsZk2QLsG7i36YPoyEHQmimUbtTYiKsJawZnBen727TX1ez11yJnV193TCM3MUKE0Q0tdmcMp2a6aVvRIg5I8fFXBZBpBvA2oEJcoA391I1ICHMiB3CYqDrP68ge4iVqMPEsW3ssFYmxtf728rjqP8Pax9Aw==);fillColor=none;strokeColor=default;" parent="ZvbYAXG5r7vH_dmeVflF-22" vertex="1">
          <mxGeometry x="9.883720930232585" y="53.35215946843863" width="0.46511627906976744" height="0.813953488372093" as="geometry" />
        </mxCell>
        <mxCell id="JChZYBgfWDOJtocZhu9c-42" value="" style="shape=stencil(lVTbbsMgDP0aXi2DMQ7PXfcflZou0bKmStNd/n5kLF3cNkh7M+Ycc3zBhjbnZneqjcPzOPSv9Ue7HxtDT8a59tjUQzsmy9DW0ObQD/XL0F+O+3w+7SbkZL3171OEz8wjcDSRHH5lRwR2P47nDO/a4wKOgKjgBFZK8MoquAOq1uF3Yq7PPYRXgOEf0a2AeIUXsH4dn669U3jrwcWC/BRPV8dZ8LRO8AFENKECLtSTPaCuEDGIXScEOyueCR7BF4oUAlj9ghcIhYkQhKhz4HIbhG+Hgst9qBACK0LKKpbmgucUr4QAoVDWiEC600KzyMcEBqtHL4mMXCAIsJYUy32wePfVFq5fSjL+/vWh7bq8Fpb3t3sgufIOoe03);fillColor=none;strokeColor=default;" parent="ZvbYAXG5r7vH_dmeVflF-22" vertex="1">
          <mxGeometry x="10.968992248062023" y="51.9568106312293" width="2.403100775193781" height="2.441860465116279" as="geometry" />
        </mxCell>
        <mxCell id="JChZYBgfWDOJtocZhu9c-43" value="" style="shape=stencil(tVbLcsIwDPyaXDW2ZVn2mdL/YIZQMqWEAfr6+ybN8IiVyuTQW3C0RNLuyqpwcdquDnXlzOl8bF/rz2Z93lb4VDnX7Lf1sTl3TxUuK1xs2mP9cmzf9+vh92HVR/ZPb+1H/w9fAy56CK5HOfM9nHgLgX9PngfArtnfAxKwHwEwQkwKIIIPYwADmVkABEQFIGpwCaxWgwHmMYDAKClxgJR9wUBUUmIEE0cAG9S2hgQOxwCndilg3iVrwLu/AZTyLgVwpMQjRBorQ22qj3nJ7nIwHe8A7SjeqBygYFmPd4KzQrwFSzPytwQYZ/THWqCxcaKqaoaQ5ghC0FVQnBWSdpeTyfhr9x40mYgv2F7k4xFY0aeol3R+RT+pwJcwGOmEWWHhoDN2GzpXgE4ZirnF+hjCkGuOdZK9yUXNrLs45K5hXRYkeI5Wn0OUFx1JHXRBGk1XXuB8EnWXHClFsxgVSdeqvD8SqcRFl6s1sUqcvDSt0f2QfC7XwieSGPCFqu8yeJCJCURBTlMI3RMTiIJPJxCF2SFb5Qu9FTYqrGFJ3J7/v1WJlLqH2165aXa7YS29f5/vod3RsMPi8gc=);fillColor=none;strokeColor=default;" parent="ZvbYAXG5r7vH_dmeVflF-22" vertex="1">
          <mxGeometry x="11.046511627906966" y="70.09634551495026" width="3.0232558139534884" height="2.7906976744186047" as="geometry" />
        </mxCell>
        <mxCell id="JChZYBgfWDOJtocZhu9c-44" value="" style="shape=stencil(lZTRTsMwDEW/Jq9WYidx8jzGf0xaRytKO3UFtr8npTBQTS365jg59b1pbEO7S304VwbtZRz65+q9OY61oQeD2HR1NTRjiQztDe1O/VA9Df1rd5zX58N0cope+rfpC9eZc9aCtROG9vaVgsSficcZaJtOB+6J/wKbK3iI2wBnAdM2IkDKm4hiIyi+M39v3wEGpwFhWYEQ2CmAkEQRMq4DSVTwDpwGyD8RgGgdYFya9hmCAkQhKRCwXweCuNaSyRogJEUEFxRAmI4RKK4DXkhiC0EDhGn2wMoL98IDJ8gKQEJScsBKR5CQVB5L1gBxSykBKx2EwkMuDaS1nJCUPZACCM+lBVFpOCkoQVTO/zFllqOvBD+T9tS07Tyof+8vJ3NJzVOd9h8=);fillColor=none;strokeColor=default;" parent="ZvbYAXG5r7vH_dmeVflF-22" vertex="1">
          <mxGeometry x="8.488372093023258" y="71.41417497231464" width="2.3255813953488373" height="4.147286821705409" as="geometry" />
        </mxCell>
        <mxCell id="JChZYBgfWDOJtocZhu9c-45" value="" style="shape=stencil(rZTbbsMgDIafhlsLMOZw3XXvUanpEi1LqjTd4e1HhprVVHU1aXeE/L+x4bMVbk7t7tgoq0/zNL42H91+bhU+KWu7oW2mbs4rhVuFm8M4NS/TeB725fu4W5TL6m18XyJ8Fl9yENzisvqr7Dgw4Wfjuej7brjSG61Ba2YwgOm+IUXwkenXAP+jvynggV5DSH8oOHqIPH4EREFvIfL4xgIJCYUIibjBgxcyClS/QC45CikFA5qfYEm8I09gkBuSeEmUwBpmQAJnBUOGxnJDAor3DY4ulK3PRmLROZ4LzEAyGDlj4kWTTAaaS8arQUbDBvD8BC+jYbHuBS+jYVLdDEFGw1DdDUFGw5i6HYKMRoLInyE+IAMSByPKYGDdPUnm4nZ86ZqLvPgdl4eu78u0vf5fj9e8VUYzbr8B);fillColor=none;strokeColor=default;" parent="ZvbYAXG5r7vH_dmeVflF-22" vertex="1">
          <mxGeometry x="4.534883720930225" y="73.00332225913633" width="2.945736434108545" height="2.7906976744186047" as="geometry" />
        </mxCell>
        <mxCell id="JChZYBgfWDOJtocZhu9c-49" value="" style="shape=stencil(lVbLbhsxDPyavRIiKepxTtP/CBCnXtS1A8d9/X253a4bSfYAua1ljkgOyREnfXjbP73uJglvl/Pp6+7n/HzZT/ppEpmP+915vvjXpI+TPryczrsv59P34/P6+/VpsVy+vp1+LDf8WnEcAoWwwCT8Xo8SRfl78HkFHOYjBghluw+ohWpq7JmKAvtEpTT2V4e37SPl+hF7ppQ7+woSLoUsfiDfYht/m72RgXgKk1hjX0jSffucKbT8MFMFhGYdCmCUQEQ5bAW6AgopSDllytxSxMTAQ4pkbQ5Oao0AEHpSxcue7wMs9axKJgNlNulplUoK6hCHvlYhZgCwnlZVmHTUrdGuAKNcAGBobc2UQEha+zr4SQSV9vusHX73KSAkHabBs2JQB+dEW5ZipIpCGuYnpk0RbgK8rtyy5KVMICQZJs68HUFruISGVjJMSUAdZBhRMwog6WVcOpHJVMDELaLb5uAjZcAD115Wk5ACWl0jum5NRgzam1Pfra4jBXkYVMOVKiEP0nerayHMYZCZnIjR40baReSqgKSVpCW1BMpAuwcVK0oRJGBbm13t/QYkMf0o+GtXwf0+u+1w+muawf2DqPprjR5D7gen5o2Bm/bDLvJuPfkH8I//y8/LfDisu9P7//tlyY/WRUsf/wA=);fillColor=none;strokeColor=default;" parent="ZvbYAXG5r7vH_dmeVflF-22" vertex="1">
          <mxGeometry x="10.42657342657344" y="73.07992007992016" width="3.3566433566433567" height="3.811188811188811" as="geometry" />
        </mxCell>
        <mxCell id="JChZYBgfWDOJtocZhu9c-50" value="" style="shape=stencil(fZPdbsMgDIWfhlsLbLDhuuveo1LTBS1LqjTdz9svERebE8GdMedD5tg2dHr0l3tn0D6WeXrvvvJ16Q29GMQ89t2clzUydDZ0uk1z9zZPz/FazvfLptyij+lze+G7cBas3SC0P7vEa5EPeWzJnQdMdT1BDFovELmuF+Ck9BghSF3vAlBUAAUQVwfWiqwGPDYrIgsiCghtiyiCZw0IOF8HPIPTJnHb1HBwiduu8sElCc0/CENCDbT7ED2wBmK7DwmBnAJSuw/OHmfP7juxBn+DfsvDUPbk//1+MdZUWSo6/wI=);fillColor=none;strokeColor=default;" parent="ZvbYAXG5r7vH_dmeVflF-22" vertex="1">
          <mxGeometry x="8.04895104895104" y="73.04495504495512" width="0.9090909090909091" height="0.979020979020979" as="geometry" />
        </mxCell>
        <mxCell id="JChZYBgfWDOJtocZhu9c-51" value="" style="shape=stencil(tVnLctswDPwaXzEE+D6n6X9kJk7jaRpnHPf194XqkRJAzrI69GbLWokEFosFvYs3r493L/udhNfz6fh1//Nwf37cxU87kcPz4/50OOunXbzdxZuH42n/5XT8/nx/+f5yN905ffp2/DE94dcF1xJlmVASfl+ucKBY/175fAE8HZ7fAyL1YgCNUoD3l+bub/1/3j/aQCIOFiCU0RsS9WQBiQJ6Q6ZoQ8SFIopRIe4WUKk2AKgUogV0kgIBrRqABKoJABpVGyUREgGATtlGSeL8iKuArguwm5ZECSypMxW7acnUIwDIzJwFUKiAxHVdsS0GJR9nANDqsZmWPi/yOiBTs2+ImK1dV5wtgKmhJVVKdtMxUkRLavPPCyBRYwioNtNR6YgSp9SwJRrbrDpXARwCBcu+iPm9fkVaHvERgIsHoILQuHa2AKYEanSduSSzdH7EjWQ3nQYFoUpmE5G2FkRStqBUCwW3B6zGWqNio5QHatx9O8mY32thypjfKn3J7iFjfq/VOA/ke6X3eSDfq6abB/K9anJlIN8yB3EBYPI1nnvgAsDka7oA9wYsrlVL1CauYHGtjYoNa8HiWqsX18rEINO1ULebrtgKKIDtpiu2AlWpYetBr2SQB31espmuWFyrUsOKQMXiqgCxUWqYSxqT6BwZtgIa9W7NRsNcmtJkW1DDQlYDiU1cw0KmzEnOtWIhU24WG6WOhawsJb8AsJBpuXTLpY6FTAFsudSxkJVMYvPQsZC9lfwCwEJWlHy2pjsWMlWh6qxxwI26KJlk0yuYguVGxwWhUip5S5hUrNOmROTm3ckg1VP/cInAZNIO1V0iMF0VEFyNYjV+a5r/WKPalp03bnggyDJHfQFgh6VOwbmThrmUuh85BlqpbscNNRVTIxVqdtMVU0MdG29qQUnD6joKbnLqOmVTG1VfGzY1anXObLk0sAJq5t3IUZYwXAc0P9QUzCWdSLx3wD0rFu8dBg4rKvttTWfMJQU47zCwlTqGOe+QsdnQQS/ZPAy8dBTvHRKmhs6ezgoMBgidbl0BDWYanZ9dZ084cTqhu6OQweQnxTfqiJucZH9gFHHiJHrzHXHiRLz5jlgERPPgRnCcaQnefA/OHabzJLuHwckGN98UB2cnXCm7IymsGlx8UxSsGpx9UxwcSSkguOMcTD5OJO5ICpOPte9vOumbziZtHhgPEMy+izL2Ghzm+WIBDCZw30QHB66aZ2fusfOm4hoiVJjsGy52Jckb1kHjoWo5igkkvjfjoZt9Z8Z+Z3Uo5rmmH97O+R8OT0+Xvwne/+7/F9BLl/8U4u0f);fillColor=none;strokeColor=default;" parent="ZvbYAXG5r7vH_dmeVflF-22" vertex="1">
          <mxGeometry x="4.6223776223775985" y="75.6323676323677" width="8.356643356643357" height="4.72027972027972" as="geometry" />
        </mxCell>
        <mxCell id="JChZYBgfWDOJtocZhu9c-52" value="" style="shape=stencil(fZNNcoMwDIVP461Gtvy7TtN7ZCYkeEIhQ0jb3D4wbgk2QTshvw9Jz5ag3a0+XCuh8Db03aX6icehFvQhlIptXfVxGCNBe0G7U9dX5767t8f0fT1Myin66r6nP/wmTiIC4oQpfKTUnPhMQBPbBeA9+JDpCaRj9AREmd6B1Nt6Z8p+pAYVGADB5wXGjrzcBqwCk1eguce3gPHlCFqBtwyw8tTwpmoJ1uUA7xK5cgbLu6TC/y3NQAA0DLC6B2dBMhWkLWfwvK0rVwOC9tv6lamLt/sHjMHroZ9i06Q9WZ6XizGm0lLR/gk=);fillColor=none;strokeColor=default;" parent="ZvbYAXG5r7vH_dmeVflF-22" vertex="1">
          <mxGeometry x="12.52447552447552" y="77.94005994006" width="0.8391608391608392" height="1.4685314685314685" as="geometry" />
        </mxCell>
        <mxCell id="JChZYBgfWDOJtocZhu9c-53" value="" style="shape=stencil(lVbLctswDPwaXXdIgC+c0/Q/MhOn1tS1M47bJn9fuBqpgajAzU2mscQS2AU58N3L/uF5N1B4uZxP33e/x8fLfuAvA9F43O/O40W/Br4f+O7pdN59O59+Hh+n388P18jr14/Tr+sOrxMuhoAQrjAKb9NSQqG/C18nwGE8vgNIQ8omftlgO76iVBMfEYsTn8H5M/GMQJ/hH1DteRuCfBzfGnjFPyI7hFpBWB0gI7ADoHm/BVBQvQwBxAZAy8omoOp+yQIipDoABllKxHPZtgEBsqJUEZ0MpSKtKDWIk6EwxJaVae7MNiAg2cZxRksfA3KBNAsQcHQAjCRWeoTqUMqLlBdAATmUUpsZLwBBdSjpfjkagJKMzQEkRHsGLUPJDqDzT1aHOBm4M1CJaE4GTmi2D9r77GXoDKTqCl6GzkCq3+wMDRWz2LKqQ8SZGpRnxgtABe94mjrHqcvFo9Q5riWwQyk2lNXgq2gOJZ1CZM8gEeyMmajqt1oSbaV3N4AtI71cyPFPmpW5DMrgXz6d324BustQ1FDOkfv4GyVaE7rRtG7CVJn9+n8VuqFTnYhW16XNPdwequsR2VlTP/69NZ7Gw2F6qrz/f/020aXpXcP3fwA=);fillColor=none;strokeColor=default;" parent="ZvbYAXG5r7vH_dmeVflF-22" vertex="1">
          <mxGeometry x="9.517482517482506" y="79.66500166500171" width="3.0069930069930066" height="2.0163170163170268" as="geometry" />
        </mxCell>
        <mxCell id="JChZYBgfWDOJtocZhu9c-54" value="" style="shape=stencil(rVfLbhsxDPyavRKSSInSOU3/I0Cc2qhrB477+vtyu1nXouwBAvS2pjmkyB1ytBM/vG2fXjdTCm/n0/Hr5ufu+byd+NOU0u6w3Zx2Z3ua+HHih5fjafPldPx+eF5+vz7NnvPTt+OPOcKvBScU8gxK4fdiiCTtr+Hz4r7fHa7cI/FH3AOV2rkH0ozcQ3Du74b/4T6cHbsn0vCBUodGJmrAPZPEzl1I6n33Qlo6dzOk++6VtO97pRRBZwJF6WsNJOBFxUSxP49ZCuKNUGw9wCyg4JgpuyMVElByVMraA5QaKrpSSz2gkSBCBEp9BrM0BEjEPYWMQ0UAgKk4EjFFBoDsB8wAFbQ1KQXuAZlYAaASuwyFKgBw8MyeQxQASCT9kSxEAW3l7NlqIQIgH6tnKwsxaCs3z1bLWQH5JHi2Wk4G5JNI1WWoVBGAKfUZLCeDLolQ7jNYTkULLFPryTfnBFwS9fS2nIoA1dNbyjpSt5fksOEtpwIu5WHHS6MEFlketnzGEpWHPW8hEpjpPGz6zKSAfHnY9RYiAfJl9QM0W1CXBnkwS0OAtsa7yE9cJ+S2XIWVzBcA1ocyCErB+lCYssuA9aEMglKMjqDoMgiK4nVfmp84xdtbTQ16BVKhggB2p3BHKhRB0RaPXQalAtaMxXMDpLYLQdEWzw1QtRkE82DxtGdrTVQBwOIFd5nJFMDWqIOg1LK+ytsA8fSulQKghsWT/k1Xe/dga1g8x9ZmVYGi2yAoLa2W24Dk2drw9ra/3fWn4e3dBn0wSwbka4M+mCUA8rVBH9qlb3furYNAXJneIfbw7+PnZbffL99O1//7jyUzLR9a/PgH);fillColor=none;strokeColor=default;" parent="ZvbYAXG5r7vH_dmeVflF-22" vertex="1">
          <mxGeometry x="3.7832167832167443" y="77.17082917082925" width="5.174825174825175" height="4.685314685314685" as="geometry" />
        </mxCell>
        <mxCell id="JChZYBgfWDOJtocZhu9c-55" value="" style="shape=stencil(lZRLUsMwDIZPk+0/smVb9rqUe3SmKclQmk5aXrcnIVCiMBV0J8v6ZOtZ8erUbI515el07rvH+rXdnpuK7yrv20NT9+15kCpeV7zadX390HfPh+10Pm5Gy1F66l5GD28TJxE5jZSn90njHSR8au4nYN8eZkCOIA24jGwBBWkBCLhcB0pCjBpgkPGCIwKRIgYX/ibAw8ktX7o4+GfMf9h7iLYP4HjdXgrY6RQRshGAeAR3SxFSRhGdoQSyAA/SAAdIvg7E+J3yS8yMYAAhw2cFRDurwYEXgN0XLCis+8juPHagBWCn1QtiUYAwijMAQtJAJgQ2epshCyChJKNwKHoUil2G4VaPQhFk40O/Rm02fV/AIPzsp12730/rbX6/3GeDatqFvP4A);fillColor=none;strokeColor=default;" parent="ZvbYAXG5r7vH_dmeVflF-22" vertex="1">
          <mxGeometry x="3.7832167832167443" y="75.6323676323677" width="1.013986013986014" height="1.6083916083916083" as="geometry" />
        </mxCell>
        <mxCell id="JChZYBgfWDOJtocZhu9c-57" value="" style="shape=stencil(zVZJboNAEHwN19bsy9lx/mHJOEZxjIWd7fcBISUORWo0t9yGoaqpXunGbq7H3aVtjLrehv65fe/2t2NjHxpjuvOxHbrbeGrstrGbQz+0T0P/et7Pz5fdhJxOL/3bZOFj5mUr1k4soz7nGytmvnic8afufIfXSolS/4qQg4T4C2/EGYIH+1qC/hufIERKEsFH0PP9wXU86OH4sKKH4X2lHl+px1XqsZV6rEY8i78B+zy/Buzz+tFp6a8TxQoa4uMkOdYAy/gHcZ7U59J8khRJ+UB0tJhcg3fiSXgQHyUSd0H+mN5M9GN4xnhq4oDG/EaeYJyJSgLJwArB0hysEKJo0gMrNaTEVvkwtqmv8sEFiVU+eN7HK4TCnwAS53knYGn4LCFV1F4wktnoXQoKQTTxAPFZLHEA8NGIJ/oR7+loRHymowvwyYgJNXgvjuj3y3ylSOMPFZQLXbDUkw2dRVA/2Ysm/qL9SPMF/ubMRxeuKqrQZDh+CwwMaolhq1XhL7/EwKWixMC1pcioVoWrFzLGw8+yfehOp3lXv3+/XM7Hq3mxt9sv);fillColor=none;strokeColor=default;" parent="ZvbYAXG5r7vH_dmeVflF-22" vertex="1">
          <mxGeometry x="2.3333333333332575" y="88.51322751322755" width="5.555555555555555" height="11.481481481481481" as="geometry" />
        </mxCell>
        <mxCell id="JChZYBgfWDOJtocZhu9c-58" value="" style="shape=stencil(lZNNEoIwDIVP020mNLS0a9R7MANIRwQG8O/2ttZRxIVmlyb9Oi9NnqB8aoqhEhKneewP1cWVcyNoI6R0XVONbvaRoK2gvO7Haj/2p66M56EIN0N07M/hhWvkErAyQBJvzwQiID5Suwi0rlsAr+q/AAFlLCADbVlAkoLlafKilOZ1IUEmLCJFMLzGFYLlqVIWNG98WoMh3jhSwJRHWDC8vzIKlGERNgFSPEKB/pyH+rFW+LXra8AHb2PVrm2jL5f1tRF9KpqYtnc=);fillColor=none;strokeColor=default;" parent="ZvbYAXG5r7vH_dmeVflF-22" vertex="1">
          <mxGeometry x="6.654320987654273" y="92.03174603174608" width="6.419753086419725" height="0.18518518518518517" as="geometry" />
        </mxCell>
        <mxCell id="JChZYBgfWDOJtocZhu9c-59" value="" style="shape=stencil(tVTLDoMgEPwarhtk5eHZ2v8wUSupVaP29ffVkrYKEeOht2WZWWYHWIJxX6ZtThjth64553edDSXBA2FM12Xe6WGMCCYE46Lp8lPXXOvMrNt0Qk7RpblNFR6GJwQIObEYfZpMAIq9E0eDr3Q9wysFKlrgKVC6jo+CffUD+q33IYTA+a4D/IoUAuKSILySJLcVMe49wfUU/T1wZUsKOYQ+gmMSF4BinRA6LgkJTK4T0HFJ+l1ijkvK71LguBRtPD1bUeRvwfFo9rb+RNiraKNjB6/sWx6D388udFWZwTDftyfBmDJTBJMX);fillColor=none;strokeColor=default;" parent="ZvbYAXG5r7vH_dmeVflF-22" vertex="1">
          <mxGeometry x="8.629629629629562" y="93.20458553791894" width="1.111111111111111" height="6.790123456790095" as="geometry" />
        </mxCell>
        <mxCell id="JChZYBgfWDOJtocZhu9c-60" value="" style="shape=stencil(lZbZboMwEEW/xq8j2+P1OU3/I1JIQaUQEbr9fXGRWqiJ6X3zci8+Y2zPCD7c6tO1ElrexqF/rt6b81gLfhBaN11dDc04tQQfBR8u/VA9Df1rd57711NSptZL/5a+8DH7lCGvkkvLz3mEifl74HHWt0230DsKbiXXlHr35JqiWckVOX9fLknKlVxSKMBkX//xb8oDBQ3Ip2kbAT1rYgvojSGF8FhLIQB658khPD6SUYA+KlIIT/QkHaBXEjwOGwZNFiKyYASheFlyvSqf/w0DSqQiKWiFnQu/YUCDZnQF9uBvM+i2GnRbDRq0RZEsimRRJIciORTJoUgeRfIokkeRAooU4EcDRYo7SFkiSSMlQ/ZyR1dcYQpRr1NhLMfgHRm/NpTfpTxZLV7zf6bDPUeecPcceUrPHVPjt7i6NG0712bL+b/F2DQ0F3J8/AI=);fillColor=none;strokeColor=default;" parent="ZvbYAXG5r7vH_dmeVflF-22" vertex="1">
          <mxGeometry x="12.611111111111086" y="89.25396825396831" width="3.148148148148148" height="11.11111111111111" as="geometry" />
        </mxCell>
        <mxCell id="ZvbYAXG5r7vH_dmeVflF-2" value="" style="shape=stencil(lVnLUhxJDPyauSrq/Tjb3v8gwniZWAwOzO7af7+aHRroyiLVdRuGVNGopFSm+hQ//by7+XF7Cu7n89PjX7f/nr8+353i51MI54e726fzs346xS+n+Onb49Ptn0+Pfz98vf784+aCvHz6/vjP5YRf17heJbpLVHC/r980Sfn/L/644u/PD+/xRdIeXyRXgs8S6oCPieCjhLTDZymR4J3kFXyr0pbwWfwSPkiKC/japS7hq7glfJIYVvBhrIckneHdeL9JAsGXNt5vlBwIvkjYP3+QxvB6nF/BO2kr+NzEL+GzpBH/csAcH6Tu8++3A+Z4J26Pd9sBU3yCfn89YI5PkvsK3ktbwccufgmv/LOEj1LbCt5LLQv5DNC//L5CHe+X18OlXdvpeL3pr/u+H3l/hcX+9XWj+2N84pO0fT41AWS+eE3HHt+3A+b8L2kP1wNeEjbv9/F69QFrJ/UM11uks3qA9u3iyP16iXl/vV48yaeDcojSyTwFenjLwEF8l0zyCfioA4TkE/EqEEh+4P+NbRuAx/KZlOBJvYVxnKYoheQnStw/T8pSif5J4obnqRtBHqu3zPmqiNs/T+b8A/WfOT/AuMtGvzvQS6pYSIF6PxJ61pHAGAImvM7wTK7M51EiFr+R3jygjDOscFLxTfpepJTXOvmIdfu+LEraLvIjWh/Gdslb3g7OgYuSYsSFf6FKYZMJJkfRWUhKyYP0qyoWWC2B9quc7CbDRvuDlQbUUtWCZ6UB46lpGlhpgL5sUTy5Bxho6kA6bdBB37S2UchcsI/+pHOCBMLoWlkkpUBI6gAdJciB8C4OkyQUCLW3TaEew3tnKFiY+EYAZqhvrXTshjsfCciQnc8crOquLpAFAEMal4wqsHvJjLT7aCP666CYs4uXsu99o66R8NTqR6Z8wRkbnYZSvKUt0fOAMoqRxsVRAHNvsAsG1LpV10H7UfP2kB/5m6F/DA5WAzUQQH1d6Rx0aFYAWEArADymEYAm1goAl2wFgA03AtDnWwHgRKwA2FRYAaANjYAC2rCGjXjmATBtDcWgKmq8aW6ncL1UnSRCAgWknhFQgcisAOAlKwBIwBBiuHMs3KTiUlPTEFlAGmdc4ba5QU8bchX3uIUb+QYkYGh03Cyrbehs1e3HWsrG7iLALsVYvuNy3NymD9Wa+XoH1/WZ76c0YHAyyVA/ZeyHxAUfvqEwLLoGDEogcXGiCrLs/wedGImltY8tGrnWeCchD+49ZhFcPEwijN3NLIJvh2YRhiWbRHBKxuQaKzS8PmNHhxXluZnGIvfcrnfQA8ZaEjvb8x1FB4nCuab10RrzLQvyK6cmfE824vXD20vIb+f7++s7zPe/H19a6lfXF57xy38=);fillColor=none;strokeColor=default;" vertex="1" parent="ZvbYAXG5r7vH_dmeVflF-22">
          <mxGeometry x="1.6470588235295054" y="106.69187675070037" width="14.50980392156863" height="13.92156862745098" as="geometry" />
        </mxCell>
        <mxCell id="ZvbYAXG5r7vH_dmeVflF-3" value="" style="shape=stencil(lVjbUlsxDPyavGpsy9dnSv+DGULJlBIm0NvfV6cZm8g+WZ+8haDN6Lpaecd3788Pb/udM+8fp+P3/e/D48fzjr/snDu8Pu9Phw/5tOP7Hd89HU/7b6fjz9fH899vD4vl8unH8dfyC3/OuOQplQXlzN/zN4Zy/v/F17P9y+F1Ym8MsGcqobNf/gL21t7ijyXPyt5R9tftY6aif99TtsA+Eut4E3n0+0w5KXsrCUoAYIm9BjiK5TogZMpOAwIxSGmQEIwGJCoghuDqv1tODQUQQzDktUtOyghi8OKAdskFshEAYu2aBkhkGQA8hS6GTD4AgPRN1IBCCblkyWYFYAsrzYWCDppdba51QOorzUwJDBvHmpMGCGRAd7OvOWmASAWMm3icdHtzrgO+DpCc6PnxhgroVsm67wZUKgOyJI2QdNBS+wwK5yIZHbR0Vwa9JBTBOmgvMwjq4NoEV4BMSAKt4WwtUwM4MqAOthDroAPDXrLS/Z1LwhogSzZWXmyASBHEICxUdJaEqSKgGevJaZeioQi6dSFG7VJ0FFCWWqs1gNAC6NZCTpOG0H8AzSpJ1RMdW5rXyZ5S50+BjRTq7mvLx8I+kmnX/ss6TaAEUgHtfwqUQAVG+1y31zb7LBVBnDrYMwW0RwZ72RO3+J8zVAtcR6TaFwPVgqvd0uyFL1GDUtT1LSKvQH+a6m2zbx11xd7oeEuG2mKwtwbLu8GhGWDMUIEdNHS0RGAAVycK8ZYMLeos9wCDeNFWVbCxZiPNCcAgqh6YtzDUnOMymLTduJ9mgGFlzgC5CsYLgAV1GHXCZNRGJTKb5UHrCFlkpNcGNZV9la0b9dqMvkyv/bMjB9I6ilQhVEaEN+jmGWOXulEbIFb1c+1YsN1O8HUrrgM8xc4lhvMQROl3W22yBQtFnaXJmpWjzehKxwQV4XgVxgAXz3h2TqTLeNdOxNF4OE/k13jJS6IZUWsk3wk8oQUw09JqVk+c1B7dL6nUrG9UtdlS6IK29RRdB7S7tEn5As9CGfnunp8cC0IqobsumupYB+RedMpliVojl17VTm6wIjKjOzzxlSf7xnWnLb4jZaPZziWui3sdEOpAXhzPCaRVtnLs7nl8notOYO3S5AHgQrlsfGNYQ4S6AjYjfG3hrWHgp5Uxs6Iy0QvaWGzREwW4NPbf5D1pHInPW/Ha0HV8LCIKqcqRB+RWRP0n1FQ0D0ye6VKqe3bbO6AcUrF7lYByZnwnxe+YN7+TTt955cPnI/HT4eXl/MZ8+f/+UVm+Oj9I8/0/);fillColor=none;strokeColor=default;" vertex="1" parent="ZvbYAXG5r7vH_dmeVflF-22">
          <mxGeometry x="5.470588235294144" y="126.56115779645205" width="11.666666666666668" height="14.934640522875789" as="geometry" />
        </mxCell>
        <mxCell id="ZvbYAXG5r7vH_dmeVflF-9" value="" style="shape=stencil(lVhJctswEHwNr1MABuvZcf7hKsuRKorkkuUsv88wLDDCoqZwk+lukgB6umc48dPH/uV9Nxn1cb2cv+9+HV6v+4m/TMYcTvvd5XCVXxM/T/z0dr7svl3On6fX5e/3lxk5//px/jnf4ffCi6T1TDLqz3JBkbP/Lnxd4MfD6QbuiWu4UgiuYgXX4O6ObH335Abghly8D7cUuIALnxFcuQKeSIOlMnG5VM2kwdsYCqrEB/J+AC9X0hA+khnBM5MbwkeKI3jLFMDhGlLlaVl5f3Bcmrg8LidPNPfxinx5Xs5TSAivyvf3iixYb4u3pMH7t3hPCeinxSeKoLYafDBkRu4fLDHczxov+xlG8KIfUF/NeUUF19voJxqK0B2qco+WnEbWFnyJ99DbUlbLig/EQD/a5OWthEgOCFR7MqYkiCLACnTK91sdTjYZSHR2nFASNEVUw74uymSwyaXaoxOTBacmJhVKWSRLBuySuJQrQyO5HIF9XTAZWxMSKAQbml0SraDUa6wxBXIo90IOrhsCygJvSJfiSzHvW5/gKVbSSDDNwprUNwSk1uDq+tcK9xLiD3XCbjCirmt0k+FyDT/MCHWZbjHS2mE9zGgkuMlwZMLIcYhEfWkeGwoRxfGQaDsEXEcdAmdVPkrQOQQeJGx4coeAQ6UlhAB71NSYR9D4CZF8WXjeZdX3CSnH+Nr4pCyvfkyoJqodw1amwxBTtOCsewxp5seesdGA9hiOPKiiHkNWDkTeY2gYLx2GhKACJ95jyO6OvZXMPnHsPKRBQgHQYxhoCD2Ggo7QYUgPg9K+x8BjVo/hoYv0GJYscuemBDdmxbbItYaB3/qOEGB36ur81ooYeadtmkfYLkvj56pEguP03LtW/XLuku4ld9QjeF1/mohQSdKvVPNHgL7sm+ZaahSMQ57rvjSQAnjXzB8e6tq18yIZUJ3S9qYqJuC4xU0f5GDVzEZartfmDuTeZFDNZ9LnA72Z5ry4Gi/lx/+PYm+H43H5pnb7//ojmlxaPsDx818=);fillColor=none;strokeColor=default;" vertex="1" parent="ZvbYAXG5r7vH_dmeVflF-22">
          <mxGeometry x="44.31578947368416" y="9.897243107769555" width="38.94736842105263" height="64.56140350877197" as="geometry" />
        </mxCell>
        <mxCell id="ZvbYAXG5r7vH_dmeVflF-10" value="" style="shape=stencil(lVfLctswDPwaXTEEwOc5Sf/DM3FqTR0747ht8velqpFtkDYo3mRq1yKxuyA58NPnbvOxHch8nk/HX9u/4+t5N/DzQDQedtvTeM5PA78M/PR2PG1/no6/D6/z74/NhJye3o9/pn/4mnkBIk0kMt/zAALG/wM/Zvh+PGhwBscdcAeUOuBxGVgHx87ZkAFjevABvHuMj8BRFseDDRo+WYG3DqJS/ATOyGpaCPgYj3l5XhA8LZ9cSQgGnCLYHUJYRlYSYu+Uoi5CTUi6pe8QLKBiu0zwKAm6bogQWBIaVSKIThIikFYluxj/hqBFBz2Q9FJKYDUvRbDSrGj09OROQtzHcIB932ADGPoYDoLrYlgC63tKZRME6hHDBXC2JGhyewdcTEk3VOAlAhdCozUZsIUD9dYdPZjCgXqKkim7WdI7QeIqFDlXyqLzEk2SBL2b5apzsf/oSk9GkMLFRuyuXlvdzmqGLt2dSTWUqAl6ImpC0DeimuB1g98hNKSrCI6AlbpOkZSJsA37VebgBiEAyW2CGgRXNnFsCGcXd150UL2UE8TSSo0JUdk1GiJguZPqPsrp4tSDD4vL1h1W656keyLmDiPro58nI4KT620cby/yXFytJjkQeDl/XV+f/07qpafMRfC+A19vbDqeEyB24PNrmzrw9Zmk1X2rk56+kS/qXI8Kqv+rTo3lBpUfrhext3G/n+9xt+/Li1semi99/PIP);fillColor=none;strokeColor=default;" vertex="1" parent="ZvbYAXG5r7vH_dmeVflF-22">
          <mxGeometry x="41.68421052631584" y="84.4586466165415" width="47.10526315789474" height="44.73684210526316" as="geometry" />
        </mxCell>
        <mxCell id="ZvbYAXG5r7vH_dmeVflF-11" value="" style="shape=stencil(lZfLctswDEW/Rts7JMAHuE7T/8hMnNpT1844Th9/X6oauSXhQOVOpg9I4gK6pCZ+eNs/ve4mcm/Xy/nr7sfh+bqf+NNEdDjtd5fDtT5N/Djxw8v5svtyOb+fnpffr08zOT99O3+fZ/i5xBFimoPI/VoGfIQvf0Y+L/zxcDL5AI4j/Oj8CSGN8IIyMn8d8cb+GeRbPiGKxUtseCaQwQeE0vIFkj/mq3rc8EGQeYCPAjH0VHyy9VR8FgQjX8VLQvYDfGG4YPE5t3xGMPTMSK3+pYAN3jtQ13DOwTkjIsC7oSUEsduTrFPc72lGppGk2SlVE8RQlTOkWyEiGiuEWtUuh4Bi1U0XrhqLkXQKyKHvjGRVujaOjASIVmkjIKK4kYDiwGpLVnfXv/vWIATj9ZnL1PpX8fDWCqpwUkBjARlsB/jWIiVArBzC6oi3AI9keLZWKefVlu8HEEq7pdosgcwAbmVNGc6wSb1CLKvz/2cO0SEZRq9VCpuV7urAG7JWU2nfONpQSXpf2jjMZ2PszXV9Bz9w45v33mRCNlxDr1AvBJaq0pvGRhWUqPbhoMu8wSvHsHltSTZfT+/uvmPzte15hI/qPmXrWQ8e3+brQYajkjJ5vwpwv4Gon9/uB3UdsfG6OA3sRjVzn2x9+HuRfzkcj8t3wL//9xf/OrR8NPDjbw==);fillColor=none;strokeColor=default;" vertex="1" parent="ZvbYAXG5r7vH_dmeVflF-22">
          <mxGeometry x="51.68421052631584" y="140.77443609022566" width="41.05263157894737" height="41.578947368421055" as="geometry" />
        </mxCell>
        <mxCell id="ZvbYAXG5r7vH_dmeVflF-12" value="" style="shape=stencil(lVfZctswDPwavWIIgudzmv5HZuLUmrp2xnGvvy9UDRWTlFf2m0xjJZy74CBPH/uX991gzcflfPq++z2+XvaDfBmsHY/73Xm86NMgz4M8vZ3Ou2/n08/j6/z7/WWynJ5+nH5Nb/gz49iQNRPKmr/zSaDk/h98ne0P4/HKPpV/i3kkx8g8xMo8EdsHzCf3wm37TCHX9o7Y3LZnJmtrgL4CfICFbO2RBiweABylOp8SKCKAp1S75AL5BACBRCqAxyXrASGUPN8JiI5ifgSQLBkUdA+IFEAf9YDMlHCWmkbNngS1RqQUasBysg7IJHXz5UwepNUyuToGNoYM8MkKufjQJzx5rgGJLKicdrP3NSAQg8rpyPkmaiknqwCxxE0hDAUQtPiWkbQ3GJRacglxAQhFUDnnKNdfiJky6D7P5JuBCGRAHXxHZNFSAGkNHQsEjUpuA/R9ri7cxlDHRKbu7+BKVOtcvHi8AGxxch2gRNfwDFMGLqXccqUCPGCybAv33gvoKr0FCJTdQ4DUjqgCGPSSTrCruzVgjbsiiYXwE8zrGmJDIlYQQgkxeI9wmJvWEI4MaKgVhGAq6JNrl5Nb5cupBjCUOhWFXI+RKn5GK0rXUeoRoD+VqVwzgXI6er9rZchSRgF0M6Q7EUhpP6SmyNi6fSTrGnukccm1O9yGfUdLG/amLBb3+a886WNjjwZhUoJmpaQI5j92mo7rpTrQUJgrK+ktJZE6Xl9afF2qcpmoz40+AH9UC5t4MRk5bje3jZ1euoIxZlQtUDMxjHWHbdui05oPauw7j/A1o6MtXfKlqoE+fN7I3sbDYb7QXf/f3uD0aL79yfM/);fillColor=none;strokeColor=default;" vertex="1" parent="ZvbYAXG5r7vH_dmeVflF-22">
          <mxGeometry x="47.47368421052647" y="195.5112781954889" width="51.578947368421055" height="61.578947368421055" as="geometry" />
        </mxCell>
        <mxCell id="ZvbYAXG5r7vH_dmeVflF-13" value="" style="shape=stencil(lVfZctswDPwavWJIgudzmv5HZuLUnrpxxnGvvy9UDWmDtNajNx27FAEsltDET5/7l4/d5Mzn5Xz6vvt9eL3sJ/4yOXd43+/Oh4tcTfw88dPb6bz7dj79fH9d7j9eZuR89eP0a17hz8JL5MJMcubv8kCeWP7/5OuCPx7eb/CBctL4TCGs4z3F2OOTW8czRdb4Qqms4x2FovBsKIP9jHhHHuCH/XCg6FG8VueTC2Ww/0A2K7wPlMD6kZxT+MBkwfqxrlbx0ZJN6/hESdc3Fop5HZ/J6XymVCu+gs9W4bOnAPZTiHX+M86nvNXxFqkg0Js1xFqgRVIMAhZC1hUrmbwBBFtfN0IhD0IWQtE1tsaQQZ9wVMI2hmTdbtqU2ILpwy5AqM6S6yqRqnfcJyTymyohnZh01A9qLa0VuxgMeWR2gYreUha/BIQY6o4bgWui77cbk+m+IIIEMaRCTjfoo4Zj8lpNKVAAMeRYXzcCw0pLR9ruCw5WuthqWTcEBl+QujqdpWSrj9wneMquJyAtidS4S6uBPixi9rqBHhjl7BJarTGTQU4mDam1FJscV5yp9XxjOCjXO4yQ4HE4bioYqKYxbO/IAIGPiZUTumwqnRzayJBHcdgAbUDklzrLJ4O00bLeYoYzjLhQ7CKAM9jYcLgGYlomdHh0OMiRXNIWvBTIbNmPHKE6P7a64H3Pk5ExbshPinXEueKRRY4m/GCmKlUu1/o6sH70/VAVoMeHNlK3PqYC3E5asLNHrE8ZSbt6WTwUzjN+R2BiNF7kWqBG8NvGNou9bhizH6w/+NwQgFxc/5HeDsfj8ot1+77/p5JHy/8YP/8D);fillColor=none;strokeColor=default;" vertex="1" parent="ZvbYAXG5r7vH_dmeVflF-22">
          <mxGeometry x="56.42105263157896" y="258.93233082706774" width="50.78947368421053" height="49.473684210526315" as="geometry" />
        </mxCell>
        <mxCell id="ZvbYAXG5r7vH_dmeVflF-14" value="" style="shape=stencil(lVfLctswDPwaXXcIgs9zmv5HZuLUmrp2xnHa5u8DV6VckjIq3WQJS2KB5RIe+OFt//S6G6x5u5xP33e/xufLfuAvg7Xjcb87jxd5Gvhx4IeX03n37Xx6Pz5Pv1+frpHXpx+nn9cVfk+4jJSvIGs+phcBjv+8+DqFH8ZjFU6hCndI8X54QsxNuMlauHVVuAW7++ERoV7dwKdN4cZsCCeQQrUL97BhA1WysEryXSUlHeO1RnG9PpNaHDJwNcBZEKmA3BC2CIp0SBKodwgWXqmoVMTUO0QCK5wXABleS6kDJI+sdK0HZIOgSHQB4EA6h1BXKUtKWh8cbLNDhNE6LZ+5BogYlZREaTm1gKSUVcT6t68zIMPZ+wAO5azMp8Hoh9P5ov61CM9I2xCha8X/ENGAeQvxGJDtltImKn67snki6MaxRR5BM6aARJsAsehzpQBTgmtS8mClSinDNDtQSXLZ/EzJeOW5znLR1DvEiKhwkFPsa0CISIoR5FCO/WyXsey5DJD1TG3IAlDsUoSQawDLba1xEG3WKbFF1LzpJv/5FkowmoUvIKRymsMuIEi12J4GyVCj8U7lFpkBCaQNPR6hTomC3opOf+LSQVO4LTaxchxYcBpkpUjeIdecY+G07MjdofbFPlfeEUJY60E7durT0qzLW/ZGKWcnIZmGlNVlbGz0QIhKcaQ1jRy4SHAd2XbGlofbfP4yHg7TeP/v93ael1fTfwF+/AQ=);fillColor=none;strokeColor=default;" vertex="1" parent="ZvbYAXG5r7vH_dmeVflF-22">
          <mxGeometry x="63.789473684210634" y="329.4586466165414" width="47.89473684210527" height="45" as="geometry" />
        </mxCell>
        <mxCell id="ZvbYAXG5r7vH_dmeVflF-16" value="" style="shape=stencil(tV1Jsly3ETwNtwjMw1qW76EIUSbDNKmgKA+3N54ZaHZn4mc9LLyjvjK7gUKhJhTQ79JPf3z45ff376L/49vXL39//6+Pv3778C795V2MHz9/eP/147f5r3fp53fpp9++fH3/t69f/vz86/f//v2XC3n96x9f/nl9wr+/84Ir/SJF/5/1hxH/94e/fod/+vj5BR7rETzgp/ei4D4BvIlP924UgJdwBI/5AD7/UI/g/WTsEz7+f2PXy0TwuP5wb5ny0oq3lCC8wIsbYplIZ5rrScFTfoEPKffgcnyVzFTJrvDFv+KT603iQeOLa3L4+PnNZSl7HP9wXigObdi52EVoDi3WpTpytUAXYnJRyJNVLbtypJrlbF9N9QlC/ozvLon19Wv1H/jhqsS38YJPU2Jy59ZXeaa4VvwNfH4dT0puyPkmGE9xWY4nvepbqnK/ML5L48D4YcwX8Nkb+oP4uePE/mJ8XDv6Jj65Kp0Q4rOrJ/LPxdA3xFfX/Al+mtsjfHfjBF+880f4aZGO8NHY74hPLpzoZ8kuSEeN+OLiiX6Wuv5yE99cOtHnMu3biT6XuR9P9Ll6w34ifnq0k/Wt0aWT9arpbL1qdv5ovtm1o/kWV47GU12W6xVfw5/ajPUNr/FA7SuAegPvX+OZOoz94j3ih5wv4Nv0sFL+iH9EUDfx0UW5XxCfDH1gvLa3iM/GeiG+OC/1jfH1SP7V2L+It+Irxuv4AfHdtSP5D1dOxtO9YU8Q/4iQb+NVvsD4aMQnsB97MjJB2O89G/4X7MnEtxP/0ouRhCO+unhi/yde2wfEtzN/MfEq36H4uXeX5edDfN7HWsE38KUgXvsXyBeGN/wL4q14GPFWPIz4JPNNmu/Ihv0BeU689i+ILy5J+4DjmfZT6ifkdxOv9JPy64nXtRaoD4xq5PuD8Cr+jEvaz3jx+XEVkp7wan+lFb084bOQfyb5WPiWT/BlVVdu4ivaTxM/6PNVfNJWNeMZL/S/r+zyCV/FeMaKrp/wKj4JfrMABoFXQBLCRuUMwkhEUDW4uFG6ropeCatYkzBUVTAtJ/cgtFW23BOm161ISGofZ1ro5qqqspZlF54IslJZVuHhQegy1A2VVKNLXzYJZRwRphB5SJqAUjLm0F1oKKWhVKOTlAyxjpVvPhOUeo9V375JuHwa6ZIkhJXy3CeMs2+Iqyh1l5A2c1B18ssx0DcoxzwJvSNB7bhYSFunOirX+fCsz1ZDKN8kNLJLypBN75DY8qlJN5q0Qeir+nt3SH2FW3cnPVb89yRWLyKe5DeGTNnWSSikGirHT2Gt630Cq7ckRBdpTxuEQVKShLS2y11CXtvlLqFQKGwQZmREC6dqmamR8uktmrpL5BRV9pUGHn8ZViPP/PfI7eapSyQlZchyxPNNw1TmtAosdwkZawo2obP1FkYgl43yKS+aKymfduy5UR7Z18rsCR0PXidBFcbzo070RMhC+QqnkvM7hWoUOnudBBWr/zi6uE/AbMwgJEpXDQLnVwbhUW68S6irvvdEUC6rtM1Kqw6B0inhmE5MqHcZWGQbQ3qgSUCxjmWp9lmipzkMeexfOWkass5TIxbyJkEZsuucJCBBGbJJGDQHScir+ecuoaz2n7uESmmZQZj+xh8ROH8wCRhKGwROBzSheVePpNQCRZUGIa6WhZu61DgdGPKUvqXNOqhjkfY4pbu5RSeh0zeoRozG6YC2Gq1SSqOPxlujtMwkoC4ZhE7rYMxhbNZBSmlqK6m3Oh/pfh0n31y47jcbSBLCUrW7hLhO1O4TeMdJQlo9DPcJGEqbhH5GyOvY5YmgDpJ63ohV+bhJGLTSak/3QtG9thqT0GgOyin2SrG3NmS9UmqpTWV/5Lb3CRgZP4KJPaFTwvHYg28RsOowZItYH9Rj6HXTzmSMdsQYHrXJZATcpTcYkMCajIj79AaDAzkl3JE2CqKWbxLOFGTkTfSqVHASMNcyCGVjzgwCnmKZhHG070bdxMcGoR3FZVcR6pSA+aJJ4CxCEvrpOnTc2TYB0z+DMA7t3+UTzqQ0LfaZeg9KkrXRf9rzN/3KnqHyuWvTk2CV+91OW0VmY1ffUHn1ZiW6bOW+Rky1skPl0KXgK7GnYnNUto/1taxd+BYB7XeW56+j032DtFbmzU0K3xC1/W50hBxklL+xG0H2iF0EWDgvC7WTwF0p8tSZbN+MQlSB8Efh94lgDAkblZpsFLtUrSNBdVJc5xqvduOKBtUcKm7RGaCq3pSrlaAgQTXj/9D+ByHLa0NXs0hBQlSq8eheeRCmeqstWpYtfSJIu1TQB810ShVqr2gDxBqk/b46gkA1vDzNnwTYD5MQ1JAyqveVOOsQC1KbmZqrtpBJgCh/Jv9S+ajo36peuITq3coKie4Ssg51eUhZ+ziKXFvSZoalpLt1N98Q5YnTZg5Be9GEjn0SvDJkFN83r3Up4alZHdplJfTTtcs7VJyj1KYNWcRwfRLUrY1JAMdeqzze2RCKLCZsCFnr0o4gdYkJSR5GbghRHp1fhIAE1Wx3RRavMV8NshtxEmpBgmrH5Xz3OsrQ3wCEMnS8xISu46WIyWXRN0ZHRA9UqjzunASI+UrRDoXOeCdBHXdy4aHoO7VXSAhDSrIvcRIgSCxRXlSbBKgKFH15exLAKRpXtyYBYr7i5V2jSYCuimyUQuhwPuvqNBeZcpfXES/C68Jl3S8wI23woln3Jk4COJRJkA7FY2UjF61LHuPWbORATEg6DN0RZBjKBN12viEEbQR2BKNiiQSvdYnW4epG0QsHK52MHIh0KTUdVZK2proS5vsEr+0SEoyUhglGSrMjqBtsG0KSz0psCYYhQ0KUrSQbgr4ltCVI1WCCl319G10yciDS1qvXXJsZ2A9RX+3aEPTdsc2QmtZWmvTV02noElz/L5bLAg8Us/YP5ONikke2lxcNSJD5NBOibA/bElQj4IYQdOzNBK9XekeQlUQiBH2PdUPQF2U3hKYT8B3BipeAUNdB9H2CzLKYUCy7xAR1ZLslnOlSyLoauiOoNr0tQfppJqTDDRSMTHFHOFTvKJ+V2BLi0RYNwQodmGCkNEjw6+T6PiEdrcOwQg3Cq7uSbLuHjnK5d1jX7cn7dH10TEFAtywS4WWNZYOXpV8af7PkieU9XZEh+Vdd3KP1LToV2+CNnJvwsgpA+Hy4xbJ8S4PxSZcxNngjvSC8PGFhL65LQxv8mUuOVvKCBsUqLxBe1sI2eCPaBH1+vLZ1c3/pR+U4/PX6BIBSYC/flph4qFR7Ha/Q5Qsv7UMfWFA18QXlo95W6QPLeLo+xZ1WXupnp+ssBr5hfmOMh+7XGPOl5jVDnhWrxyYeLkQY+ILNpcb4C1YgDfkU9C9e+uvrKQwcT9Atkwnxyr9zE6fRdpewl9b4fLpkZow/YoHWy/ShB2xdN+QZsAfVwNNFP41vg+dr4CONX8z3OsNF+6nk2Rr2oOv1ag2b3LU+NLqQauDLmX62zPom5ZPw6qfej3xtQPuXFvC2q/Z3Ew+XN7Q/bR7Hrw80rqeu0L+rz6+P9ODe+Ovjvtk9f13bKvnds7e14o0evV4TH9A+KP9VC77LYOAz3iUzxpPw8RNjvnTlyZAn3aky1itgf4+hDx57abS+lYH3Nk18OPr8fjb+Qo+Z6CeTJ57kr+RZKj5mot9YLgVbIA18RvkbeLpNaYw/YvxmyDNiPPYwYHv85nVuVQ/hG61BntVcp634+SrfyZ2uBchDvEz9zEHWKzL1ABp4ahI38NS2buCpj8zAU0eViQ+YD0o8NTro99Rz4PGr/DfzlQzZIZApH9T4NLD/RY+Hb/vr+aaO94e0fia6eqP1PzXMl/X+Sg3fpQjyLbREt5NMvD/6/ILxv4Gn/MjEn82XbsUZ+Ij5o4mneouyn9ezIKg/qp6T6Cqj9r/J40Vd7U/jQH3W/ovfctHx9sRTvqbqObFxviDxlfMFOZ6ynqa8Od+C95gNeWaUv/bXMbE9Ues78eEkv4gRrySbeH/0+QHjcwPv8UK/IR/P+amSfxg4Xx1fBbprr/Vh4o/iydBwvsZ4Hk8x35wv5V9anoGeO9DrNfH0+yoSXzDfNMZTuF4h55sxvzDkucnv5HqlTX6t8BHfejPxNF+Jp3zQwPvD+fp1HHWz/n/2CzeDrYM8jcBWe61sHXN9/en0posee+PKhqwUYQ+yLgw0roMov1U5bVRusXLVRFY1MMnX8MI2TcMppdbwoxOdfFbAybxMGk7mQMETbw8NryeSSfjwtAX3J5KJXDnTcNpNGn50ThTwUqYFLydRJhU99OajHyzSW5ved7Z+1ouUQP+sF8H1b4y1k/jP/G23+Y8fvwv328dPn77/rNzz/8ffkZt/+v4bdOnn/wI=);fillColor=none;strokeColor=default;" vertex="1" parent="ZvbYAXG5r7vH_dmeVflF-22">
          <mxGeometry x="139.0526315789475" y="11.300751879699419" width="333.15789473684214" height="383.15789473684214" as="geometry" />
        </mxCell>
        <mxCell id="ZvbYAXG5r7vH_dmeVflF-20" value="" style="shape=stencil(lVfJTgMxDP2auVpJnMU5s/wHEoWOKC0qZft7XKaIJgab3GZ5jrw8PzsTXjyvb55WU3DPh/3uYfU23x7WE15OIczb9Wo/H/hpwqsJL+52+9X9fveyvV3en26OyOPT4+71eML7Ylcq+HK0Cu7j9AV8/PpwveA38/YMTw5SHsMH3+ATYP4bL/1BSEXBZ3CxwXsoVcEHqKHBO3Dub3wmKGkEHyHRCN5BHPEnZQgj/qQAbsSfWMbyE3EsP1jH8oNpLD/ox/ITCDwO8Ifpezruf/zk46iNV+e/F3wjqKjgBd98gKQE7D3EtoF9AVI8IsA2QRzxqaV/Z3RfAD5By1AUDY9qxILQTKmgVMz3AhEzROV81xc46RUWeG7pouRH+JNZwjQG9fEWr/ov8lmSrkB9vYpeL8EHCuoEkIQjvcCe891miIpO6Qy5DZkMStTvHv82qF6vgejiGiErQUuZqDrrpA5VUttMCp13o1JqWgixtizkODAtxMCxLORIMy0Exy0LOZZNCynEloWQestCLi+mRelzZdCKBK0M4pJgldEaRH17G83Hv8fauwoSspOaJLPHnR7w2qpNac5Jpwe8h2prQxUsN1Scy1Rb1TTGxBkT/juIpIUx6n6xMIapDCMaxRaZRV38Ze2M/UHSCfUBJgmLOjso9xMv6OzggdjvWPrMlrcqYymTOhB6/vHDzyXxbt5sljvm+f/+UsmflgspXn0C);fillColor=none;strokeColor=default;" vertex="1" parent="ZvbYAXG5r7vH_dmeVflF-22">
          <mxGeometry x="3.7999999999999545" y="147.74285714285725" width="9.6" height="5.6" as="geometry" />
        </mxCell>
        <mxCell id="ZvbYAXG5r7vH_dmeVflF-21" value="" style="shape=stencil(lVbLcsIwDPyaXDW2ZdnSuY//YAZaMqXAAH39fZ1mSnE0kZubCbu2tVrJ6vDuvF0dN11w58vp8LL56NeXbYf3XQj9frs59Zey6vChw7unw2nzfDq87dfj7+NqQA6r18P7sMPnyBNwMpCC+xo/eA/e/3x5HPG7fn+D9w6SX0gIWBEEQprHqwtliMb2CThUcITs5uERiCq4A2fAA4S8AF6UiLU2wDQPv272v1AV3EfgJfghnLDg9uU+mReIgwiI83j8je6KZ2CZxxMkrvAxABl4ZYXI4A35ldPITlcxOqaaQECGlT1CqhUl2/ueQGqJUgCxCCXCWqOUIGUjZ/5XwqvnHKBFIGXSCM4iyLTEsm0jjNM8sIdoEXgqK9vGizhViQm84aRYboxLCKRqhzO4aBBUI+JGMWSQmiAOsnFCUm6VRvlEyHU9S4RonaDMJwnQaI9ZmU/sCs3KfN7ZHTgr97UYrOzXZCj/tRhFeUdLAheCSEukFeXYRrbLBbi2R8OxNzH+s071ESWfYtSpDqLRnLRMjfanE5HsN5RlWhTJHnc4qUfC7vkcpoVN9higLd54hnQVtQhuKmuDkNS7pQhl8TeCPvW73TjB3v4/HVnLp3HcxYdv);fillColor=none;strokeColor=default;" vertex="1" parent="ZvbYAXG5r7vH_dmeVflF-22">
          <mxGeometry x="5.399999999999977" y="152.3428571428572" width="8.8" height="5.4" as="geometry" />
        </mxCell>
        <mxCell id="ZvbYAXG5r7vH_dmeVflF-24" value="" style="rounded=0;whiteSpace=wrap;html=1;" vertex="1" parent="1">
          <mxGeometry x="1011" y="31" width="840" height="466" as="geometry" />
        </mxCell>
      </root>
    </mxGraphModel>
  </diagram>
</mxfile>
